<?xml version="1.0" encoding="utf-8"?>
<!-- Generator: Adobe Illustrator 21.0.0, SVG Export Plug-In . SVG Version: 6.00 Build 0)  -->
<svg version="1.1" id="Layer_1" xmlns="http://www.w3.org/2000/svg" xmlns:xlink="http://www.w3.org/1999/xlink" x="0px" y="0px"
	 viewBox="0 0 400 400" style="enable-background:new 0 0 400 400;" xml:space="preserve">
<style type="text/css">
	.st0{fill:rgba(238, 238, 238, 0.9);}
</style>
<path class="st0" d="M200,0C89.6,0,0,89.6,0,200c0,110.5,89.6,200,200,200c110.5,0,200-89.5,200-200C400,89.6,310.5,0,200,0z
	 M242.8,200.1h-28c0,44.8,0,99.9,0,99.9h-41.5c0,0,0-54.6,0-99.9h-19.8v-35.3h19.8v-22.9c0-16.4,7.8-41.9,41.9-41.9l30.8,0.1v34.3
	c0,0-18.7,0-22.3,0c-3.6,0-8.8,1.8-8.8,9.6v20.8h31.7L242.8,200.1z"/>
</svg>
